<svg width="42" height="43" viewBox="0 0 42 43" fill="none" xmlns="http://www.w3.org/2000/svg">
<g filter="url(#filter0_d_0_39)">
<path fill-rule="evenodd" clip-rule="evenodd" d="M0 7.36C0 4.78376 0 3.49564 0.50137 2.51164C0.942388 1.6461 1.6461 0.942388 2.51164 0.50137C3.49564 0 4.78376 0 7.36 0H34.64C37.2162 0 38.5044 0 39.4884 0.50137C40.3539 0.942388 41.0576 1.6461 41.4986 2.51164C42 3.49564 42 4.78376 42 7.36V34.64C42 37.2162 42 38.5044 41.4986 39.4884C41.0576 40.3539 40.3539 41.0576 39.4884 41.4986C38.5044 42 37.2162 42 34.64 42H7.36C4.78376 42 3.49564 42 2.51164 41.4986C1.6461 41.0576 0.942388 40.3539 0.50137 39.4884C0 38.5044 0 37.2162 0 34.64V7.36Z" fill="#ADB3BC"/>
</g>
<path fill-rule="evenodd" clip-rule="evenodd" d="M13.213 16.7782C13.198 16.7919 13.1688 16.8202 13.1365 16.852C13.113 16.8751 13.0943 16.8937 13.0556 16.9324L10.9124 19.0756C10.8563 19.1344 10.8173 19.1738 10.7268 19.2644C10.6762 19.315 10.6391 19.3538 10.5593 19.4386C10.4108 19.5823 10.2543 19.7538 10.1076 19.9348C9.96929 20.0811 9.85878 20.2516 9.7816 20.4377C9.62269 20.9219 9.62269 21.3924 9.76424 21.8294L9.7832 21.8804C9.86101 22.0646 9.97086 22.2335 10.1076 22.3792C10.2544 22.5589 10.4109 22.7305 10.5764 22.8932C10.6391 22.9605 10.6762 22.9993 10.7268 23.0498L10.9124 23.2355L12.8664 25.1926C12.9578 25.284 13.0027 25.3284 13.0546 25.378C13.11 25.4364 13.1682 25.4943 13.2266 25.5493C13.2371 25.5586 15.7275 28.0474 15.7275 28.0474C15.8044 28.1243 15.8664 28.1847 16.006 28.3195C16.0208 28.334 16.0433 28.3569 16.0502 28.3641C16.0861 28.4019 16.107 28.4237 16.1208 28.4376C16.4113 28.7284 16.7452 28.9728 17.1104 29.162C17.4847 29.3483 17.8741 29.4765 18.2759 29.5471C18.6554 29.6092 19.0313 29.6424 19.4081 29.6479C19.4729 29.6492 19.5268 29.6498 19.6469 29.651C19.7628 29.6522 19.8139 29.6528 19.8766 29.6541L27.2974 29.6542C27.3739 29.6528 27.4257 29.6522 27.5428 29.651C27.6641 29.6498 27.7185 29.6492 27.7881 29.6478C28.1665 29.6411 28.5451 29.6068 28.9197 29.5452C29.3303 29.4757 29.7252 29.3453 30.0939 29.1579C30.4654 28.9692 30.8045 28.7225 31.0985 28.427C31.3908 28.1335 31.6362 27.7962 31.8257 27.4273C32.0128 27.0529 32.1414 26.6597 32.2105 26.2542C32.2733 25.8751 32.3066 25.4947 32.3107 25.1134C32.314 25.0349 32.3155 24.9599 32.3177 24.7939C32.3187 24.7151 32.3192 24.6803 32.32 24.6375L32.3202 17.6481C32.3192 17.5937 32.3187 17.5591 32.3177 17.4817L32.3165 17.4012C32.315 17.2997 32.3132 17.2236 32.3102 17.1478C32.3061 16.7889 32.274 16.4133 32.2147 16.0416C32.1424 15.6299 32.0142 15.2405 31.8326 14.8753C31.6416 14.5023 31.3978 14.1676 31.1066 13.8765C30.8165 13.5841 30.4795 13.3384 30.1102 13.1503C29.7432 12.9665 29.3556 12.8381 28.9556 12.7672C28.5719 12.7061 28.1954 12.6741 27.818 12.6695C27.6933 12.6643 27.5828 12.6632 27.3383 12.6632C27.2582 12.6618 27.1646 12.6609 27.0593 12.6604C26.9801 12.6601 26.9171 12.66 26.775 12.66H20.4525C20.169 12.66 20.0406 12.6606 19.8787 12.6633C19.6448 12.6632 19.5343 12.6643 19.392 12.67C19.0332 12.6738 18.6573 12.7059 18.2853 12.7655C17.8741 12.8378 17.4847 12.9659 17.1195 13.1476C16.7452 13.3414 16.4113 13.5858 16.1206 13.8769C16.107 13.8905 16.0861 13.9124 16.0516 13.9487C16.0433 13.9574 16.006 13.9948 16.006 13.9948C15.8664 14.1295 15.8044 14.1899 15.7275 14.2669L15.4065 14.5879L13.2715 16.7259C13.2528 16.7408 13.2328 16.7584 13.213 16.7782ZM26.775 13.9189C26.9154 13.9189 26.9771 13.9189 27.054 13.9193C27.1544 13.9197 27.243 13.9205 27.3279 13.9219C27.566 13.922 27.6653 13.923 27.7852 13.9278C28.119 13.9321 28.4346 13.9589 28.747 14.0086C29.0164 14.0564 29.2881 14.1464 29.5426 14.2739C29.789 14.3994 30.0172 14.5658 30.2149 14.765C30.415 14.965 30.581 15.1931 30.7088 15.4426C30.8334 15.693 30.9236 15.9671 30.9733 16.2498C31.0213 16.551 31.0481 16.8655 31.0519 17.1806C31.0549 17.2614 31.0565 17.3281 31.0579 17.4199L31.0589 17.4983C31.06 17.5786 31.0605 17.6151 31.0615 17.6607L31.0613 24.6252C31.0605 24.6593 31.06 24.6959 31.0589 24.7775C31.0569 24.9325 31.0556 25.0002 31.0524 25.082C31.0486 25.4169 31.0209 25.7329 30.9691 26.0455C30.9212 26.3262 30.8313 26.6011 30.7028 26.8585C30.5759 27.1054 30.4073 27.3371 30.2063 27.5389C30.0064 27.7399 29.7761 27.9075 29.5238 28.0356C29.2683 28.1654 28.9948 28.2557 28.7125 28.3035C28.4009 28.3548 28.0832 28.3836 27.7647 28.3892C27.6993 28.3905 27.6475 28.3911 27.5304 28.3923C27.4092 28.3935 27.3547 28.3942 27.2851 28.3955L19.8892 28.3954C19.8334 28.3942 19.7796 28.3935 19.6595 28.3923C19.5436 28.3911 19.4925 28.3905 19.4297 28.3892C19.1113 28.3846 18.7972 28.3569 18.4864 28.3061C18.2113 28.2576 17.9372 28.1674 17.6803 28.0396C17.4391 27.9146 17.2104 27.7472 17.0112 27.5478L16.9621 27.4963C16.9132 27.4451 16.8921 27.4233 16.8678 27.4018C16.7424 27.2806 16.6853 27.225 16.6176 27.1573L14.122 24.6616C14.0992 24.6409 14.0854 24.6284 14.0759 24.6199C14.0308 24.5765 13.9939 24.5393 13.959 24.5022C13.8869 24.4324 13.8475 24.3934 13.7569 24.3029L11.8029 22.3458L11.6169 22.1597C11.5783 22.1211 11.5472 22.0886 11.476 22.0129C11.321 21.8599 11.1909 21.7167 11.0692 21.5666L11.0312 21.5237C10.9994 21.4911 10.9731 21.4538 10.9531 21.413C10.9047 21.2452 10.9048 21.0671 10.9536 20.8993C10.9725 20.8602 10.9977 20.8245 11.0283 20.7935L11.0712 20.7453C11.1908 20.5961 11.3195 20.4544 11.4566 20.321C11.5472 20.2257 11.5783 20.1932 11.6169 20.1545C11.7151 20.0563 11.759 20.0118 11.8138 19.9542L13.7569 18.0114L13.9457 17.8226C13.9833 17.785 13.9994 17.7689 14.0199 17.7488L14.0614 17.7114L14.0615 17.7114L14.0615 17.7114C14.0917 17.6843 14.1085 17.6693 14.1251 17.6526L16.2969 15.4777L16.6176 15.157C16.6853 15.0893 16.7424 15.0336 16.8678 14.9125C16.8921 14.8909 16.9132 14.8691 16.9605 14.8197L17.011 14.7668C17.2104 14.5671 17.4391 14.3997 17.6893 14.2701C17.9372 14.1468 18.2113 14.0566 18.494 14.0069C18.7954 13.9587 19.1095 13.9318 19.4243 13.9283C19.5623 13.923 19.6616 13.922 19.8892 13.922C20.0522 13.9194 20.1759 13.9189 20.4525 13.9189H26.775ZM20.813 24.4885C20.7621 24.5384 20.7013 24.5792 20.6327 24.6075C20.4208 24.695 20.1769 24.6461 20.0151 24.4836C19.795 24.2626 19.795 23.9052 20.0151 23.6842C20.0472 23.652 20.0825 23.6243 20.1201 23.6012L22.5642 21.1544L20.0151 18.608L20.0228 18.6003C19.9728 18.5493 19.9321 18.4885 19.9038 18.42C19.8162 18.208 19.8652 17.9642 20.0277 17.8024C20.2487 17.5823 20.606 17.5823 20.827 17.8024C20.8592 17.8344 20.8869 17.8696 20.91 17.9072L23.3623 20.3555L25.8376 17.8776C25.8559 17.8512 25.8768 17.826 25.9001 17.8024C26.0613 17.6404 26.3042 17.5917 26.5154 17.6789C26.7265 17.7661 26.8643 17.972 26.8643 18.2005C26.8643 18.3527 26.8031 18.495 26.6997 18.5988L26.7058 18.6049L24.1607 21.1527L26.6446 23.6326C26.667 23.649 26.6886 23.6673 26.7089 23.6874C26.8708 23.8486 26.9196 24.0915 26.8324 24.3026C26.7452 24.5138 26.5393 24.6515 26.3108 24.6515C26.1585 24.6515 26.0163 24.5903 25.9125 24.487L25.9064 24.493L23.3624 21.9518L20.8208 24.4962L20.813 24.4885Z" fill="black"/>
<defs>
<filter id="filter0_d_0_39" x="0" y="0" width="42" height="43" filterUnits="userSpaceOnUse" color-interpolation-filters="sRGB">
<feFlood flood-opacity="0" result="BackgroundImageFix"/>
<feColorMatrix in="SourceAlpha" type="matrix" values="0 0 0 0 0 0 0 0 0 0 0 0 0 0 0 0 0 0 127 0" result="hardAlpha"/>
<feOffset dy="1"/>
<feColorMatrix type="matrix" values="0 0 0 0 0.537255 0 0 0 0 0.541176 0 0 0 0 0.552941 0 0 0 1 0"/>
<feBlend mode="normal" in2="BackgroundImageFix" result="effect1_dropShadow_0_39"/>
<feBlend mode="normal" in="SourceGraphic" in2="effect1_dropShadow_0_39" result="shape"/>
</filter>
</defs>
</svg>
