<svg width="334" height="120" viewBox="0 0 334 120" fill="none" xmlns="http://www.w3.org/2000/svg">
<path d="M304.828 0.506608C303.967 0.802402 302.596 1.68979 301.813 2.46624C297.154 7.19895 300.599 14.7047 307.491 14.7417C311.994 14.7417 315.205 11.8207 315.205 7.60567C315.205 3.94521 313.13 1.28307 309.527 0.358711C307.53 -0.158929 306.747 -0.121954 304.828 0.506608Z" fill="black"/>
<path d="M151.726 5.64518C150.199 6.27374 148.828 7.71574 148.437 9.04681L148.163 10.1191L98.8254 10.3409C50.976 10.5258 49.4098 10.5628 45.6116 11.3022C27.1688 14.8887 14.5604 21.3223 4.61459 32.2297C3.36158 33.5977 2.34351 34.8548 2.34351 35.0397C2.34351 35.2246 2.6176 35.4834 3.00917 35.5943C3.43989 35.7792 3.98808 35.4095 4.81037 34.4481C7.12061 31.712 13.5423 25.981 16.6748 23.9105C23.2531 19.5475 33.2381 15.5173 42.0875 13.6686C51.2893 11.7459 50.5453 11.7829 101.096 11.7829H148.241L148.75 13.077C149.572 15.2955 152.862 16.7375 155.602 16.0719C156.973 15.7392 159.244 13.8165 159.518 12.7073L159.753 11.7829H219.271C278.515 11.7829 278.789 11.7829 278.789 11.0434C278.789 10.3039 278.515 10.3039 219.271 10.3039C162.846 10.3039 159.753 10.267 159.753 9.6384C159.753 8.41825 158.187 6.56954 156.503 5.86703C154.584 5.01662 153.331 4.97964 151.726 5.64518Z" fill="black"/>
<path d="M43.1838 19.215C27.4429 20.9528 13.3857 30.0485 5.55433 43.618C3.51819 47.0936 0.973006 54.3036 0.424814 58.1119C-0.201692 62.2161 -0.123379 69.9437 0.58144 73.6411C4.02722 92.3131 19.4941 107.103 39.7381 111.17C42.6356 111.762 51.7983 111.799 166.997 111.799C284.624 111.799 291.28 111.762 294.374 111.133C304.476 109.062 312.66 104.847 319.904 97.9702C329.105 89.2073 334 77.9302 334 65.3589C334 55.0431 330.633 45.6516 323.937 37.2215C315.91 27.1645 303.536 20.5831 290.066 19.178C285.407 18.7344 47.4911 18.7344 43.1838 19.215ZM45.6115 52.6028C47.7652 53.1204 49.9188 54.0818 50.976 54.9322C51.6025 55.4498 51.5242 55.6347 50.232 57.4834C49.4489 58.5926 48.7441 59.48 48.6266 59.48C48.5091 59.48 47.4519 59.0363 46.2772 58.4817C43.3405 57.1136 40.0513 56.8918 38.8766 58.001C38.3676 58.4077 37.976 59.1842 37.976 59.6649C37.976 60.885 39.1115 61.5506 43.4971 62.8077C49.9579 64.6934 52.0724 66.653 52.0724 70.7571C52.0724 73.3084 51.5634 74.4916 49.8405 76.1924C47.8043 78.152 45.3766 78.8175 41.1477 78.6327C38.3676 78.5217 37.3103 78.2629 35.235 77.3386C33.8254 76.71 32.1808 75.7856 31.5152 75.268C30.4188 74.4176 30.4188 74.3437 31.0061 73.4932C31.3585 73.0126 32.1808 72.0143 32.8073 71.3118L33.982 70.0177L35.6658 71.1639C37.976 72.7168 40.0905 73.5302 41.9308 73.5302C45.0242 73.5302 46.5905 71.9034 45.2591 70.0177C44.8284 69.3891 43.8103 68.8715 41.7742 68.3168C33.5122 66.0614 31.6326 64.4715 31.6326 59.8497C31.6326 56.2632 33.3555 53.9339 37.0363 52.6767C38.9941 51.9742 43.1055 51.9372 45.6115 52.6028ZM212.223 53.2313C217.94 55.7456 220.837 60.5522 220.328 66.69C219.898 72.1252 216.334 76.4142 210.696 78.152C209.13 78.6327 207.759 78.7436 205.214 78.6327C201.102 78.4478 198.949 77.5974 196.13 75.1201C188.259 68.1689 191.196 55.7826 201.494 52.6767C204.431 51.7893 209.482 52.0482 212.223 53.2313ZM76.6627 55.117L76.7802 57.6313H72.8646H68.9097L68.8314 68.058L68.714 78.5217L65.6989 78.6327L62.6447 78.7436L62.5664 68.2799L62.4489 57.8162L58.6507 57.7052L54.8134 57.5943V55.0061V52.4549L65.6989 52.5288L76.5453 52.6398L76.6627 55.117ZM97.3374 61.6985C99.6085 66.69 102.271 72.458 103.211 74.5285C104.151 76.6361 104.934 78.4108 104.934 78.5217C104.934 78.6327 103.485 78.7066 101.723 78.6327L98.473 78.5217L97.1417 75.8226L95.7712 73.1605H90.0935H84.3766L83.1627 75.8596L81.9489 78.5217L78.7772 78.6327C76.6236 78.7066 75.5664 78.5957 75.5664 78.3369C75.5664 77.9302 86.0995 54.6364 86.9609 53.1204C87.3133 52.5288 87.7441 52.4549 90.2892 52.5288L93.226 52.6398L97.3374 61.6985ZM125.413 53.5641C128.036 54.4885 129.328 55.8935 130.033 58.4817C131.09 62.4749 129.642 66.8749 126.783 68.5017L125.295 69.3152L128.624 73.789C130.464 76.2663 131.952 78.3738 131.952 78.4848C131.952 78.5957 130.268 78.7066 128.232 78.7066H124.551L121.497 74.4546L118.443 70.2395L116.407 70.2025H114.331V74.4546V78.7066H111.199H108.066V65.5438V52.344L115.624 52.5288C122.124 52.7137 123.455 52.8616 125.413 53.5641ZM155.446 55.0431V57.5943L151.648 57.7052L147.81 57.8162L147.693 68.2799L147.615 78.7436L144.56 78.6327L141.545 78.5217L141.428 68.058L141.349 57.6313H137.473H133.596V55.3019C133.596 54.0448 133.675 52.8986 133.792 52.7137C133.871 52.5658 138.804 52.4549 144.717 52.4549H155.446V55.0431ZM189.512 55.0431V57.6313H185.831C182.855 57.6313 182.112 57.7422 181.916 58.2229C181.798 58.5556 181.681 63.2883 181.681 68.7605V78.7436L178.666 78.6327L175.612 78.5217L175.533 69.0933C175.455 63.9169 175.416 59.2212 175.416 58.6296V57.6313H171.696H167.976V55.0431V52.4549H178.744H189.512V55.0431ZM241.395 53.3423C245.545 54.5624 248.756 57.5204 249.892 61.1069C250.518 63.1035 250.479 68.1689 249.852 70.0177C248.991 72.458 247.111 74.8983 245.193 76.1184C242.217 77.9671 240.142 78.3738 232.506 78.5957L225.536 78.8175V65.8765C225.536 58.7775 225.654 52.8246 225.849 52.6767C226.358 52.1221 239.28 52.6767 241.395 53.3423ZM274.952 65.211C278.124 72.1252 280.708 78.0041 280.747 78.2629C280.747 78.6327 279.964 78.7066 277.536 78.6327L274.325 78.5217L273.151 75.8226L271.976 73.1605L266.142 73.2344L260.307 73.3453L259.133 76.0075L257.919 78.7066H254.669C252.868 78.7066 251.38 78.5957 251.38 78.4848C251.38 78.3738 252.515 75.8226 253.886 72.8647C255.256 69.8698 257.919 64.0648 259.798 59.9237L263.244 52.4179L266.22 52.5288L269.196 52.6398L274.952 65.211ZM287.834 57.0767C289.401 59.6279 290.81 61.6985 290.967 61.6985C291.124 61.6985 292.533 59.6279 294.06 57.0767L296.84 52.4549H300.169C301.97 52.4549 303.458 52.5288 303.458 52.6767C303.458 52.7877 301.343 56.3372 298.759 60.5892L294.06 68.3538V73.5302V78.7066H290.928H287.795V73.4193L287.756 68.1689L283.136 60.5892C280.59 56.4111 278.554 52.8986 278.672 52.7137C278.75 52.5658 280.199 52.4549 281.883 52.4549H284.976L287.834 57.0767Z" fill="black"/>
<path d="M203.021 57.7773C195.62 60.994 197.03 72.6039 204.94 73.4174C207.916 73.7501 209.404 73.2695 211.44 71.3468C212.849 70.0157 213.398 69.1653 213.789 67.6864C214.651 64.1738 213.476 60.8461 210.539 58.5907C209.325 57.6663 208.66 57.4445 206.624 57.3705C205.136 57.2966 203.726 57.4445 203.021 57.7773Z" fill="black"/>
<path d="M89.9368 61.2167C89.7802 61.4386 89.0754 62.9545 88.2923 64.6184L86.9609 67.6133H90.0543C91.7772 67.6133 93.1868 67.4654 93.1868 67.2805C93.1868 66.4671 90.1718 60.847 89.9368 61.2167Z" fill="black"/>
<path d="M114.331 61.3265V65.0239H118.012C121.301 65.0239 121.849 64.913 122.75 64.1735C123.455 63.6189 123.846 62.8794 123.964 61.8811C124.355 58.8122 122.593 57.703 117.386 57.666L114.331 57.6291V61.3265Z" fill="black"/>
<path d="M231.801 65.3581V73.1597H235.208C239.593 73.1597 241.512 72.3462 243.039 69.9059C243.94 68.4639 244.096 67.7614 244.096 65.5799C244.096 63.3985 243.94 62.696 243.039 61.254C241.63 58.9616 239.593 58.0372 235.169 57.7414L231.801 57.5196V65.3581Z" fill="black"/>
<path d="M264.536 64.1367C263.714 65.8745 263.166 67.3904 263.244 67.5014C263.361 67.5753 264.497 67.6862 265.75 67.6862C269.705 67.6862 269.509 68.019 267.904 64.2846C267.121 62.4729 266.337 60.9569 266.22 60.9569C266.102 60.9569 265.358 62.3989 264.536 64.1367Z" fill="black"/>
<path d="M2.61765 99.2628C2.0303 99.8175 7.12066 105.401 10.7622 108.248C17.7713 113.683 23.6448 116.493 32.4942 118.563L36.6056 119.562L157.717 119.636C239.593 119.71 278.789 119.636 278.789 119.377C278.789 119.118 240.377 119.007 160.34 119.007C78.464 119.007 40.6779 118.896 38.0935 118.6C30.0273 117.75 22.705 115.273 16.0875 111.095C12.0936 108.58 7.6297 104.735 4.88874 101.444C4.06645 100.409 3.24416 99.4847 3.12669 99.2998C2.97006 99.1519 2.77428 99.1519 2.61765 99.2628Z" fill="black"/>
</svg>
