<svg width="42" height="43" viewBox="0 0 42 43" fill="none" xmlns="http://www.w3.org/2000/svg">
<g filter="url(#filter0_d_0_52)">
<rect width="42" height="42" rx="4.6" fill="#FCFCFE"/>
</g>
<path d="M29.8002 22.6643H25.6031V26.6334C25.6031 26.7134 25.6031 26.7867 25.6031 26.8634C25.6031 26.93 25.6031 26.9933 25.6005 27.06C25.5986 27.2029 25.5863 27.3455 25.5635 27.4865C25.5387 27.6267 25.4938 27.7625 25.4302 27.8898C25.3651 28.0169 25.28 28.1328 25.1782 28.233C25.076 28.3332 24.9593 28.4175 24.832 28.483C24.7031 28.5458 24.5661 28.5906 24.4251 28.6163C24.2836 28.6385 24.1407 28.6507 23.9975 28.653C23.9309 28.653 23.8662 28.6563 23.8009 28.6563H18.4018C18.3351 28.6563 18.2708 28.653 18.2051 28.653C18.0619 28.6507 17.9191 28.6385 17.7776 28.6163C17.6366 28.5906 17.4998 28.5457 17.371 28.483C17.2437 28.4175 17.127 28.3332 17.0248 28.233C16.9229 28.1329 16.8379 28.017 16.7728 27.8898C16.7092 27.7625 16.6643 27.6267 16.6395 27.4865C16.6166 27.3455 16.6041 27.2029 16.6022 27.06C16.6022 26.9933 16.5995 26.93 16.5995 26.8634C16.5995 26.7867 16.5995 26.7134 16.5995 26.6334V22.6643H12.3361C11.9049 22.6643 11.3517 21.7345 11.8696 21.218C12.3098 20.7814 19.2289 13.883 20.6769 12.4466C20.7833 12.3159 20.9336 12.2282 21.0998 12.2H21.1112C21.2549 12.2078 21.3885 12.277 21.4777 12.39C22.9257 13.8263 29.8685 20.7814 30.3091 21.218C30.8273 21.7345 30.3934 22.6643 29.8002 22.6643Z" fill="black"/>
<defs>
<filter id="filter0_d_0_52" x="0" y="0" width="42" height="43" filterUnits="userSpaceOnUse" color-interpolation-filters="sRGB">
<feFlood flood-opacity="0" result="BackgroundImageFix"/>
<feColorMatrix in="SourceAlpha" type="matrix" values="0 0 0 0 0 0 0 0 0 0 0 0 0 0 0 0 0 0 127 0" result="hardAlpha"/>
<feOffset dy="1"/>
<feColorMatrix type="matrix" values="0 0 0 0 0.537255 0 0 0 0 0.541176 0 0 0 0 0.552941 0 0 0 1 0"/>
<feBlend mode="normal" in2="BackgroundImageFix" result="effect1_dropShadow_0_52"/>
<feBlend mode="normal" in="SourceGraphic" in2="effect1_dropShadow_0_52" result="shape"/>
</filter>
</defs>
</svg>
